<?xml version="1.0" encoding="UTF-8" standalone="no"?>
<!-- Created with Inkscape (http://www.inkscape.org/) -->

<svg
   width="352.95416mm"
   height="352.95416mm"
   viewBox="0 0 352.95416 352.95416"
   version="1.1"
   id="svg1"
   xml:space="preserve"
   inkscape:export-filename="bitmap.svg"
   inkscape:export-xdpi="96"
   inkscape:export-ydpi="96"
   xmlns:inkscape="http://www.inkscape.org/namespaces/inkscape"
   xmlns:sodipodi="http://sodipodi.sourceforge.net/DTD/sodipodi-0.dtd"
   xmlns="http://www.w3.org/2000/svg"
   xmlns:svg="http://www.w3.org/2000/svg"><sodipodi:namedview
     id="namedview1"
     pagecolor="#505050"
     bordercolor="#eeeeee"
     borderopacity="1"
     inkscape:showpageshadow="0"
     inkscape:pageopacity="0"
     inkscape:pagecheckerboard="0"
     inkscape:deskcolor="#505050"
     inkscape:document-units="mm" /><defs
     id="defs1" /><g
     inkscape:label="Capa 1"
     inkscape:groupmode="layer"
     id="layer1"
     transform="translate(71.568436,27.977081)"><path
       style="fill:#000000"
       d="m -37.409502,310.53546 c -2.149485,-0.57803 -3.882519,-1.63648 -5.447967,-3.32736 -1.921983,-2.07597 -2.841536,-4.08197 -2.952282,-6.44039 -0.04783,-1.01865 -0.278762,-5.42396 -0.513175,-9.78959 -0.354378,-6.59982 -0.405636,-12.28496 -0.304154,-33.73437 l 0.12205,-25.79688 0.695169,-3.80515 c 2.753079,-15.06954 8.229154,-27.39025 17.136875,-38.55652 5.456299,-6.83974 13.612742,-14.44283 18.6799074,-17.41262 6.1409733,-3.59912 7.2003248,-12.05332 2.0994947,-16.7551 -0.6519965,-0.60099 -1.8212673,-1.41459 -2.5983791,-1.80799 -0.777113,-0.3934 -1.556724,-0.91981 -1.732471,-1.16978 -0.175746,-0.24998 -0.949396,-0.72546 -1.719222,-1.05663 -0.769825,-0.33117 -2.008088,-1.1219 -2.751695,-1.75719 -0.743606,-0.63528 -1.431974,-1.15506 -1.529707,-1.15506 -0.09773,0 -0.789238,-0.48339 -1.536679,-1.07421 -0.747441,-0.59082 -1.703239,-1.25224 -2.123996,-1.46982 -0.420757,-0.21758 -1.38329,-1.05489 -2.138962,-1.86068 -0.755672,-0.8058 -2.83568,-2.97211 -4.62224,-4.81404 -2.206496,-2.27487 -3.474768,-3.81567 -3.954442,-4.80416 -0.388384,-0.80037 -1.196153,-2.00866 -1.795043,-2.6851 -0.59889,-0.67644 -1.541027,-2.10519 -2.093639,-3.175 -0.552611,-1.06981 -1.403914,-2.59996 -1.891783,-3.40032 -0.487869,-0.80036 -1.025891,-1.87193 -1.195606,-2.38125 -0.169714,-0.50932 -0.992761,-2.35479 -1.828992,-4.10104 -0.836231,-1.74625 -1.831064,-4.3061 -2.210739,-5.68854 -0.379676,-1.38245 -0.939054,-3.40651 -1.243063,-4.49792 -0.921981,-3.30995 -0.995826,-3.69982 -1.453327,-7.67292 -0.621388,-5.396325 -0.749298,-9.210322 -0.417049,-12.435413 0.157411,-1.527968 0.418028,-4.028281 0.579147,-5.55625 0.174802,-1.657715 0.655926,-3.951887 1.192976,-5.688541 0.495017,-1.600729 1.145773,-4.14973 1.446124,-5.664446 0.477495,-2.408078 0.882032,-3.438392 3.220421,-8.202083 1.470881,-2.99643 3.131645,-6.175295 3.690588,-7.064146 0.558942,-0.88885 1.016259,-1.710783 1.016259,-1.826518 0,-0.115735 0.595313,-0.839882 1.322917,-1.609216 0.727604,-0.769334 1.322917,-1.579223 1.322917,-1.799753 0,-0.573545 0.962276,-1.914567 3.064004,-4.269975 2.647498,-2.967054 7.452344,-7.672719 8.265774,-8.095153 0.814739,-0.423114 3.644238,-2.498954 5.303815,-3.891103 0.635508,-0.5331 1.588008,-1.149587 2.116667,-1.369969 1.372851,-0.572303 2.86115,-1.440875 4.5122565,-2.633354 0.8090193,-0.584298 2.0202389,-1.171595 2.7781249,-1.347058 0.7390531,-0.171104 2.5938891,-0.93092 4.1218578,-1.688481 2.07069979,-1.026646 3.41817633,-1.498284 5.2916666,-1.852167 1.3824479,-0.26113 2.9257125,-0.643851 3.4294768,-0.85049 0.5037644,-0.206639 1.6348581,-0.443026 2.5135417,-0.525304 0.8786835,-0.08228 2.4226177,-0.38687 3.4309657,-0.676871 4.481391,-1.288848 3.194004,-1.26631 70.133307,-1.227849 34.488432,0.01982 64.622702,0.109006 66.965032,0.198199 4.24459,0.161629 4.26188,0.164806 5.18731,0.952912 0.51068,0.434908 1.56533,1.326523 2.34367,1.981367 2.13787,1.798676 2.50887,2.234933 3.70891,4.361297 0.8251,1.461988 0.85848,1.636141 0.88154,4.598391 0.0226,2.900806 -0.02,3.163007 -0.73669,4.534062 -0.41835,0.800365 -1.25179,2.005509 -1.85208,2.678099 -0.60029,0.67259 -1.40912,1.62509 -1.7974,2.116667 -0.43531,0.551132 -1.27448,1.121998 -2.18896,1.489088 l -1.48301,0.595313 H 92.129409 c -40.366988,0 -61.677535,0.09239 -63.16312,0.273843 -2.769415,0.338262 -3.797212,0.644598 -5.152434,1.535693 -1.571582,1.033357 -1.806639,1.175763 -3.072977,1.861718 -1.44875,0.784766 -1.767392,1.066364 -3.725001,3.291951 -1.551552,1.763947 -2.51474,3.614269 -3.303133,6.34545 -0.58886,2.03995 -0.656305,2.679203 -0.544343,5.159375 0.13563,3.004477 0.517499,4.254352 2.158317,7.064261 0.815719,1.396923 5.371466,6.030832 6.499648,6.61116 0.365515,0.188018 2.093322,0.836655 3.839572,1.441415 l 3.175,1.099564 23.944792,0.08108 c 20.644961,0.0699 24.127102,0.137192 25.267708,0.488261 0.727604,0.223951 2.394479,0.618886 3.704166,0.877633 2.719898,0.537355 5.831952,1.862562 7.14375,3.042025 0.291042,0.261681 1.188178,0.721501 1.993636,1.021821 0.805457,0.30032 2.35327,1.231687 3.439583,2.069705 2.698761,2.081913 7.176897,6.595834 7.752327,7.814281 0.2595,0.549465 0.86813,1.39534 1.35251,1.879723 0.48438,0.484383 1.62522,2.297008 2.53519,4.028056 0.90996,1.73105 1.85489,3.44502 2.09982,3.80882 0.24494,0.3638 0.83976,1.43536 1.32183,2.38125 0.48208,0.94588 0.99453,1.79578 1.13878,1.88866 0.29781,0.19174 1.31601,1.92128 2.64601,4.49455 0.49833,0.96416 1.1465,2.0111 1.44038,2.32654 0.29388,0.31545 0.87031,1.19347 1.28096,1.95116 1.14792,2.11802 3.13032,4.5592 6.05427,7.45535 2.35023,2.32789 4.84368,4.37332 5.33121,4.37332 0.0918,0 1.25557,0.75298 2.58607,1.67328 1.93298,1.33704 2.97735,1.84728 5.19722,2.53912 1.52796,0.4762 3.13531,1.07891 3.57187,1.33935 0.43656,0.26044 1.73494,0.79445 2.88529,1.1867 2.05056,0.69921 2.28386,0.71842 11.90625,0.98047 9.37414,0.25529 20.30967,0.14333 26.90628,-0.27546 3.05264,-0.19381 3.07887,-0.20118 5.02708,-1.41251 1.07714,-0.66972 2.80784,-1.47464 3.846,-1.78869 1.09955,-0.33263 2.14054,-0.84028 2.49352,-1.21601 0.33327,-0.35475 0.70247,-0.645 0.82043,-0.645 0.20389,0 2.58608,-1.39759 3.36899,-1.97652 1.94183,-1.4359 5.98549,-6.13594 7.56908,-8.79771 0.14552,-0.24459 0.46311,-0.62913 0.70576,-0.85452 0.24264,-0.22538 0.85518,-1.54089 1.36118,-2.92333 0.50601,-1.38245 1.29316,-3.39749 1.74924,-4.47788 0.45608,-1.08038 0.96625,-2.74725 1.1337,-3.70416 0.21196,-1.21119 0.35089,-11.346815 0.45724,-33.357545 0.15276,-31.616622 0.15278,-31.61776 0.7265,-33.123048 0.31555,-0.827938 0.81546,-1.839969 1.11091,-2.248959 0.29545,-0.408989 0.80016,-1.457992 1.12157,-2.331117 0.76806,-2.086418 1.93256,-3.966465 3.33156,-5.378701 0.62404,-0.629952 1.13463,-1.317695 1.13463,-1.528317 0,-0.648389 2.21517,-2.650912 3.13617,-2.835112 0.49066,-0.09813 1.44216,-0.714258 2.23286,-1.445846 0.75781,-0.701164 1.69756,-1.474735 2.08833,-1.719047 1.11828,-0.699158 9.1464,-3.306242 11.19576,-3.635757 3.11745,-0.50125 9.2738,0.0916 11.26351,1.084657 0.51962,0.25934 1.76977,0.737575 2.77813,1.062746 2.59883,0.838067 5.11903,2.104631 6.19899,3.115401 0.50932,0.476693 1.28323,1.051211 1.71979,1.276708 1.1483,0.59313 5.88611,5.52613 6.53274,6.801881 0.30239,0.596596 0.64996,1.149478 0.77237,1.228627 0.34856,0.225365 2.60649,5.765087 3.06874,7.52901 0.3556,1.356922 0.44277,4.950085 0.60018,24.738541 0.10129,12.733073 0.0884,24.282135 -0.0287,25.664583 -0.11704,1.382448 -0.33399,4.299479 -0.48212,6.482295 -0.14813,2.18281 -0.45251,4.62359 -0.6764,5.42395 -0.22389,0.80037 -0.56758,2.28865 -0.76376,3.3073 -0.39963,2.07504 -1.29818,4.9401 -1.87402,5.97541 -0.20917,0.37606 -0.51014,1.26306 -0.66881,1.97112 -0.15868,0.70806 -0.68226,1.94818 -1.16351,2.75584 -1.36453,2.29 -2.49648,4.57362 -2.66195,5.37032 -0.083,0.39977 -0.94893,1.70946 -1.9242,2.91041 -0.97527,1.20096 -2.4066,3.12921 -3.18073,4.28499 -0.77414,1.15579 -2.56361,3.31009 -3.97662,4.78734 -1.413,1.47725 -3.70019,3.89346 -5.08264,5.36935 -1.79385,1.91511 -2.83624,2.80871 -3.64059,3.12095 -0.61988,0.24062 -1.52116,0.87372 -2.00284,1.40688 -1.09509,1.21214 -4.19836,3.27589 -5.60136,3.72505 -0.58208,0.18635 -1.53458,0.7238 -2.11666,1.19434 -1.42043,1.14824 -4.70552,2.76838 -5.61579,2.76961 -0.40382,5.4e-4 -1.12964,0.24207 -1.61295,0.53673 -1.00621,0.61347 -5.35314,2.10811 -6.13109,2.10811 -0.28581,0 -1.40664,0.29775 -2.49072,0.66167 -1.08409,0.36391 -3.05074,0.77336 -4.37033,0.90989 -1.31959,0.13652 -2.51405,0.31916 -2.65434,0.40587 -0.14029,0.0867 -1.71826,0.41096 -3.5066,0.72057 -3.38639,0.58628 -8.02614,0.73214 -15.95152,0.50149 -2.03729,-0.0593 -32.39823,-0.0236 -67.46875,0.0794 -56.447381,0.16571 -63.992292,0.23486 -65.748954,0.60263 -4.152324,0.86932 -8.873939,2.89759 -12.697898,5.45464 -2.418994,1.61757 -7.441839,6.58326 -8.986865,8.88462 -1.067249,1.5897 -3.18607,5.56734 -3.18607,5.98118 0,0.38938 -10.02284,23.84476 -11.669932,27.30989 -0.566537,1.19188 -1.030068,2.25094 -1.030068,2.35349 0,0.10254 -0.399765,1.03237 -0.888367,2.06628 -0.488602,1.03392 -1.165355,2.56446 -1.503895,3.40121 -0.338541,0.83674 -0.712682,1.52135 -0.831425,1.52135 -0.118743,0 -0.215896,0.18716 -0.215896,0.41591 0,0.22874 -0.285983,0.91335 -0.635518,1.52135 -0.349535,0.608 -0.720439,1.51178 -0.824231,2.00841 -0.103792,0.49662 -0.637251,1.80631 -1.185466,2.91041 -0.548214,1.1041 -1.254695,2.6623 -1.569958,3.46267 -0.315263,0.80036 -0.878788,2.04544 -1.252277,2.76684 -0.3734903,0.7214 -0.8485303,1.88226 -1.0556448,2.57969 -0.2071146,0.69743 -0.4815618,1.26805 -0.6098827,1.26805 -0.1283209,0 -0.3182908,0.38691 -0.4221555,0.85981 -0.2005104,0.91292 -1.1859174,3.1484 -1.4891076,3.37818 -0.099385,0.0753 -0.3812875,0.73016 -0.6264511,1.45521 -0.2451637,0.72504 -0.5349484,1.37779 -0.6439659,1.45055 -0.2941472,0.19632 -2.1207589,4.24448 -2.1207589,4.70005 0,0.21571 -0.3461534,1.06214 -0.7692296,1.88097 -0.4230763,0.81882 -0.985337,2.02456 -1.2494682,2.6794 -0.26413125,0.65484 -0.56258091,1.25085 -0.66322149,1.32447 -0.27295044,0.19964 -2.08058071,4.24197 -2.08058071,4.65271 0,0.48933 -0.8473972,2.2249 -1.0863148,2.2249 -0.1070062,0 -0.2748877,0.38696 -0.37307,0.8599 -0.098182,0.47294 -2.0378421,4.90802 -4.3103551,9.85573 -7.7166076,16.80057 -16.1514546,33.20521 -18.3693706,35.72595 -2.747669,3.12282 -7.454453,4.51243 -11.551955,3.41055 z"
       id="path1" /></g></svg>
